<svg width="24" height="26" viewBox="0 0 24 26" fill="none" xmlns="http://www.w3.org/2000/svg">
<path d="M8.33959 16.5213C8.32061 16.4928 9.65905 11.4143 9.75398 11.1675C9.78246 11.0915 10.6178 11.2814 12.2505 11.718M8.33959 16.5213L8.53165 16.3612C8.50615 16.3306 8.47935 16.3141 8.47383 16.3107L8.4734 16.3104C8.46407 16.3046 8.45672 16.301 8.45395 16.2997C8.44811 16.2968 8.44511 16.2958 8.44779 16.2968C8.45229 16.2986 8.46246 16.3022 8.48027 16.308C8.51464 16.3192 8.56598 16.3348 8.63336 16.3546M8.33959 16.5213C8.38706 16.5782 13.2662 17.8597 13.3042 17.8312M8.33959 16.5213L8.54761 16.3826C8.58055 16.432 8.58632 16.4798 8.58744 16.4891L8.58753 16.4899C8.58954 16.5061 8.58946 16.5189 8.58935 16.5245C8.58912 16.5363 8.58804 16.545 8.5878 16.547L8.58779 16.547C8.58715 16.5521 8.58666 16.5542 8.58735 16.5506C8.58848 16.5446 8.59092 16.533 8.59514 16.5143C8.60333 16.4781 8.61618 16.4244 8.63336 16.3546M8.63336 16.3546C8.6335 16.354 8.63364 16.3535 8.63378 16.3529C8.66844 16.2121 8.71929 16.0114 8.78137 15.7696C8.90548 15.2864 9.07382 14.6417 9.2458 13.99C9.41776 13.3383 9.59322 12.6801 9.73156 12.1695C9.80075 11.9142 9.86052 11.6963 9.90586 11.5348C9.91844 11.49 9.92984 11.4498 9.93999 11.4145M8.63336 16.3546C8.634 16.3548 8.63463 16.355 8.63527 16.3552C8.77126 16.395 8.96429 16.4492 9.19624 16.5129C9.65974 16.6403 10.2743 16.8047 10.8891 16.9665C11.5038 17.1284 12.1179 17.2874 12.5803 17.4042C12.8081 17.4617 12.9981 17.5087 13.133 17.5406M9.93999 11.4145C9.92366 11.412 9.90847 11.4098 9.89442 11.408C9.84446 11.4015 9.82008 11.4009 9.81309 11.4012C9.8082 11.4014 9.82346 11.4016 9.84732 11.3937C9.86337 11.3884 9.94962 11.3578 9.98806 11.2553L9.98807 11.2553L9.98739 11.257C9.98744 11.2569 9.98686 11.2585 9.98555 11.2623L9.97993 11.2797C9.97524 11.2946 9.96926 11.3142 9.96198 11.3389C9.95549 11.3608 9.94815 11.386 9.93999 11.4145ZM9.93999 11.4145C10.0354 11.4291 10.17 11.4554 10.3464 11.4946C10.7574 11.5859 11.37 11.7414 12.1859 11.9595M12.1859 11.9595L12.2505 11.718M12.1859 11.9595C12.1859 11.9596 12.1859 11.9596 12.1859 11.9596L12.2505 11.718M12.1859 11.9595C12.859 12.1397 13.4729 12.308 13.9207 12.4324C14.1339 12.4916 14.3092 12.5408 14.4354 12.5766M12.2505 11.718C13.5984 12.0788 14.7091 12.392 14.7281 12.4015M14.7281 12.4015L14.5513 12.5783C14.5027 12.5297 14.489 12.4758 14.4857 12.4622C14.4805 12.4415 14.4793 12.4248 14.4789 12.4172C14.478 12.4013 14.4789 12.3894 14.4792 12.3865L14.4792 12.3864C14.4798 12.3789 14.4806 12.375 14.48 12.3784C14.4791 12.3836 14.477 12.3949 14.4728 12.4143C14.465 12.451 14.4524 12.5055 14.4354 12.5766M14.7281 12.4015L14.6163 12.6251C14.6258 12.6299 14.6335 12.6329 14.6355 12.6337L14.6355 12.6337L14.6422 12.6362L14.6448 12.6371L14.6436 12.6368L14.6389 12.6353L14.6013 12.6242C14.5673 12.6142 14.5178 12.6 14.4541 12.5819C14.448 12.5802 14.4418 12.5784 14.4354 12.5766M14.7281 12.4015C14.7565 12.43 13.3516 17.7838 13.3042 17.8312M14.4354 12.5766C14.4349 12.5786 14.4344 12.5807 14.4339 12.5827C14.3985 12.7304 14.3461 12.9408 14.2819 13.1938C14.1537 13.6996 13.9795 14.3722 13.8028 15.0458C13.6261 15.7194 13.4471 16.3933 13.3094 16.9014C13.2405 17.1557 13.1822 17.3676 13.1397 17.5171C13.1374 17.5252 13.1352 17.533 13.133 17.5406M13.3042 17.8312L13.1542 17.6312C13.1932 17.6019 13.2307 17.5919 13.2448 17.5885C13.2624 17.5842 13.2768 17.5829 13.2844 17.5823C13.2997 17.5812 13.3112 17.5819 13.3147 17.5821C13.3229 17.5826 13.3274 17.5835 13.3247 17.583C13.3209 17.5824 13.3111 17.5807 13.2934 17.577C13.2591 17.5699 13.2074 17.5582 13.1394 17.5422C13.1373 17.5417 13.1351 17.5411 13.133 17.5406M13.3042 17.8312L13.1274 17.6545C13.0991 17.6827 13.085 17.7113 13.0845 17.7124C13.0804 17.7202 13.0779 17.726 13.0772 17.7277C13.0756 17.7314 13.0753 17.7325 13.0767 17.7287C13.0791 17.7218 13.0833 17.709 13.0894 17.6891C13.1002 17.6542 13.1148 17.6043 13.133 17.5406M3.80982 3.52905L3.80981 3.52902L3.81349 3.52771C3.92615 3.48773 4.10867 3.46652 4.38251 3.4507C4.66813 3.43419 5.0857 3.42257 5.69275 3.41485C6.90774 3.3994 8.8961 3.39941 12.1373 3.4089L12.197 3.40905C16.0143 3.41844 17.9754 3.42326 19.0213 3.44932C19.5446 3.46236 19.8515 3.48088 20.0504 3.51039C20.2652 3.54225 20.3668 3.5891 20.4731 3.65148C20.7265 3.79687 20.9726 4.09564 21.1183 4.36622L21.1185 4.36613L21.1228 4.37495L21.3316 4.80211L21.3572 4.85435L21.357 4.91251L21.338 12.9052V12.9055L21.3379 12.9557C21.3238 16.8692 21.3166 18.8591 21.2881 19.9015C21.2739 20.4214 21.2542 20.7208 21.2224 20.9089C21.206 21.0056 21.1849 21.0836 21.1541 21.152C21.1231 21.2209 21.0872 21.2689 21.0596 21.3044C20.9403 21.4661 20.7172 21.6893 20.5554 21.8086C20.521 21.8354 20.4732 21.8716 20.4044 21.9028C20.3358 21.9339 20.2577 21.955 20.1607 21.9711C19.9721 22.0025 19.6701 22.0212 19.142 22.0336C18.0795 22.0586 16.0392 22.0586 12.0042 22.0586H11.9942H11.9843C7.94926 22.0586 5.90894 22.0586 4.8464 22.0336C4.31833 22.0212 4.01633 22.0025 3.82777 21.9711C3.73069 21.955 3.65259 21.9339 3.58399 21.9028C3.5152 21.8717 3.46741 21.8354 3.43302 21.8087C3.27129 21.6893 3.04809 21.4661 2.92877 21.3044C2.90121 21.2689 2.86538 21.221 2.83442 21.1523C2.80364 21.084 2.78243 21.0063 2.76604 20.9098C2.7342 20.7224 2.71451 20.4244 2.70031 19.9075C2.67185 18.871 2.66467 16.893 2.65057 13.0034L2.65038 12.953L2.65038 12.9528C2.64089 9.44628 2.6385 7.4455 2.65515 6.27883C2.66347 5.69621 2.67658 5.31604 2.69651 5.05831C2.71615 4.80432 2.74355 4.64891 2.79043 4.52794C2.88758 4.2725 3.00121 4.06743 3.17212 3.90101C3.3425 3.73512 3.55192 3.62513 3.80982 3.52905ZM19.5732 20.788C19.0886 20.6581 17.5315 20.2397 15.4696 19.6858C14.2923 19.3695 12.9504 19.009 11.5497 18.6327C10.241 18.2812 8.99738 17.9475 7.9027 17.6538C5.91716 17.121 4.42158 16.7197 3.91636 16.5818C3.91588 16.5874 3.91541 16.5931 3.91494 16.5991C3.89339 16.8725 3.8908 17.4075 3.8908 18.4388V20.525L4.05124 20.679L4.05139 20.6788L4.05846 20.6862L4.21248 20.8467H11.9752C15.7788 20.8467 17.747 20.8443 18.7911 20.8206C19.1575 20.8123 19.4039 20.8015 19.5732 20.788ZM3.74112 16.5333C3.73757 16.5322 3.73846 16.5328 3.74287 16.5337L3.74114 16.5332L3.74112 16.5333ZM4.05846 4.80027L4.05859 4.80039L4.05176 4.80699C3.95167 4.90363 3.90497 5.01592 3.89806 5.09136C3.89629 5.11072 3.89739 5.12403 3.8988 5.13227C5.39947 5.54736 6.89595 5.94086 8.02539 6.22381C8.59294 6.36599 9.06638 6.4799 9.4006 6.55456C9.53805 6.58527 9.65008 6.60891 9.73459 6.6251C9.75224 6.57234 9.77259 6.50895 9.79502 6.43692C9.86084 6.22557 9.94203 5.94823 10.0211 5.66659C10.1003 5.38499 10.1767 5.10104 10.2333 4.87653C10.2511 4.80586 10.2667 4.74175 10.2798 4.68588C10.1727 4.67727 10.0254 4.66971 9.83131 4.66342C9.32322 4.64696 8.52002 4.63982 7.34288 4.63982H4.21249L4.05846 4.80027ZM10.4602 4.70853C10.4601 4.70849 10.4599 4.70844 10.4598 4.7084L10.4602 4.70853ZM19.9372 4.80748L19.937 4.80763L19.93 4.80027L19.7759 4.63982H15.7153H11.7405L11.0303 7.32058L11.0301 7.32161C10.8167 8.11346 10.6271 8.83401 10.492 9.35752C10.4245 9.61937 10.3708 9.83139 10.3346 9.97816C10.3344 9.97881 10.3343 9.97946 10.3341 9.98011C10.3835 9.99411 10.4408 10.0102 10.5057 10.0283C10.7599 10.0991 11.1271 10.1995 11.5802 10.3222C12.4863 10.5677 13.7342 10.9022 15.1057 11.2676L15.1059 11.2677C17.4128 11.8845 19.4283 12.4285 20.0581 12.6004C20.0639 12.5358 20.0694 12.4486 20.0741 12.3321C20.0952 11.8093 20.0976 10.8051 20.0976 8.89877V4.96151L19.9372 4.80748ZM20.0338 12.7608C20.0338 12.7609 20.0345 12.7595 20.0355 12.7562C20.0342 12.759 20.0337 12.7607 20.0338 12.7608ZM6.77567 7.35582L6.77489 7.35561C5.43921 6.99664 4.2371 6.68212 3.8908 6.59253V10.7783C3.8908 12.8884 3.89322 14.0095 3.91554 14.6087C3.92558 14.8781 3.93933 15.0254 3.95415 15.1052C4.90044 15.3665 5.75711 15.5931 6.38499 15.7521C6.70754 15.8337 6.96839 15.8973 7.14954 15.9384C7.17414 15.944 7.19708 15.9491 7.21834 15.9538C7.23124 15.91 7.24591 15.8594 7.26227 15.8025C7.32682 15.5778 7.41615 15.259 7.52199 14.8767C7.7336 14.1124 8.01051 13.0966 8.28572 12.0777C8.56092 11.0587 8.83428 10.037 9.03879 9.26076C9.14107 8.87254 9.22598 8.54629 9.28524 8.31265C9.30627 8.22978 9.32393 8.15905 9.33795 8.10162C9.23189 8.05993 9.07192 8.00552 8.85405 7.93793C8.39645 7.79595 7.70524 7.60244 6.77567 7.35582ZM17.9299 13.5071L17.9299 13.5071L17.9277 13.5065C17.3017 13.3358 16.728 13.1817 16.3085 13.0703C16.1169 13.0194 15.9577 12.9775 15.8406 12.9471C15.8402 12.9482 15.8399 12.9494 15.8395 12.9506C15.7973 13.0962 15.7395 13.3057 15.6715 13.5593C15.5356 14.0658 15.36 14.7425 15.1875 15.4212C15.015 16.0999 14.8459 16.7795 14.723 17.2919C14.6615 17.5484 14.6119 17.7617 14.5793 17.9115C14.5774 17.9201 14.5756 17.9285 14.5738 17.9366C14.5858 17.9401 14.5984 17.9438 14.6115 17.9476C14.766 17.9926 14.9885 18.0548 15.2629 18.13C15.8113 18.2804 16.5628 18.482 17.3838 18.7002L17.3841 18.7003L20.0533 19.4144L20.0786 16.8425C20.0786 16.8424 20.0787 16.8422 20.0787 16.842C20.0834 16.0451 20.0858 15.3175 20.0846 14.7871C20.084 14.5216 20.0825 14.3065 20.08 14.157C20.0796 14.135 20.0793 14.1145 20.0789 14.0956C20.0711 14.0933 20.063 14.0909 20.0546 14.0885C19.936 14.0535 19.7656 14.0049 19.5555 13.9464C19.1355 13.8292 18.5601 13.6729 17.9299 13.5071Z" fill="#B7B7B7" stroke="#ABA5A5" stroke-width="0.5"/>
</svg>
