<svg width="24" height="23" viewBox="0 0 24 23" fill="none" xmlns="http://www.w3.org/2000/svg">
<path d="M4.305 4.30488C3.62821 4.41737 3.15538 4.9279 3.16465 5.55091C3.16465 5.98356 6.74329 17.1546 6.98434 17.4488C7.3181 17.8815 7.61478 18.0199 8.24521 18.0199C8.87565 18.0199 9.17232 17.8815 9.51535 17.4488C9.59879 17.3363 10.1829 15.6663 10.804 13.7367C11.4252 11.807 11.9536 10.2062 11.9907 10.1716C12.0185 10.137 12.5655 11.7292 13.2052 13.7107C14.0026 16.1855 14.429 17.3969 14.5774 17.5526C14.6886 17.6824 14.976 17.8555 15.1985 17.942C15.9031 18.193 16.5892 18.0113 17.0157 17.4488C17.2567 17.1546 20.8354 5.98356 20.8354 5.55091C20.8446 4.83271 20.242 4.29622 19.4169 4.28757C18.8235 4.28757 18.3785 4.53851 18.1375 5.02308C18.0355 5.2221 17.4607 6.91809 16.8581 8.77849C16.2554 10.6475 15.7363 12.1272 15.6992 12.0666C15.6621 12.0147 15.4396 11.3571 15.1985 10.6216C14.9668 9.88607 14.6237 8.83906 14.4476 8.30257L14.1231 7.33343H13.5205C12.9457 7.33343 12.9178 7.32478 12.9735 7.15172C13.4463 5.76724 13.4926 5.33459 13.1774 4.91059C12.6119 4.11451 11.3788 4.0799 10.7762 4.83271C10.6742 4.95385 10.0809 6.64119 9.44118 8.58812C8.80148 10.535 8.27302 12.1359 8.26375 12.1532C8.24521 12.1618 7.74457 10.6475 7.14195 8.77849C6.53933 6.90944 5.96452 5.2221 5.87181 5.02308C5.58441 4.46063 5.00033 4.19239 4.305 4.30488Z" fill="#BDBDBD"/>
</svg>
