<svg width="24" height="25" viewBox="0 0 24 25" fill="none" xmlns="http://www.w3.org/2000/svg">
<path fill-rule="evenodd" clip-rule="evenodd" d="M21.5309 22.6406H2.46912C2.25764 22.6406 2 22.4691 2 22.1714V3.10969C2 2.8982 2.25764 2.64056 2.46912 2.64056C2.68061 2.64056 2.76592 2.8982 2.76592 3.10969V21.8746H21.5309C21.8285 21.8746 22 22.0461 22 22.1714C22 22.4691 21.8285 22.6406 21.5309 22.6406Z" fill="#EAE8E8"/>
<path fill-rule="evenodd" clip-rule="evenodd" d="M4.54344 19.3279L19.4368 4.39997C19.6652 4.17115 20.0356 4.17115 20.2642 4.39997C20.4926 4.62888 20.4926 4.99997 20.2642 5.22888L5.37082 20.1567C5.14229 20.3856 4.77187 20.3856 4.54344 20.1567C4.31491 19.9279 4.31491 19.5567 4.54344 19.3279Z" fill="#EAE8E8"/>
<path opacity="0.5" fill-rule="evenodd" clip-rule="evenodd" d="M12.4261 4.1724C13.0605 4.1724 13.5749 4.77297 13.5749 5.40744C13.5749 6.0419 13.0605 6.55631 12.4261 6.55631C11.7916 6.55631 11.191 6.0419 11.191 5.40744C11.191 4.77297 11.7916 4.1724 12.4261 4.1724Z" fill="#AEAEAE"/>
<path fill-rule="evenodd" clip-rule="evenodd" d="M10.1283 8.00198C10.7628 8.00198 11.2772 8.60255 11.2772 9.23702C11.2772 9.87148 10.7628 10.3859 10.1283 10.3859C9.49385 10.3859 8.89328 9.87148 8.89328 9.23702C8.89328 8.60255 9.49385 8.00198 10.1283 8.00198Z" fill="#AEAEAE"/>
<path opacity="0.5" fill-rule="evenodd" clip-rule="evenodd" d="M7.83056 4.93831C8.46503 4.93831 8.97944 5.53889 8.97944 6.17335C8.97944 6.80782 8.46503 7.32223 7.83056 7.32223C7.19609 7.32223 6.59552 6.80782 6.59552 6.17335C6.59552 5.53889 7.19609 4.93831 7.83056 4.93831Z" fill="#AEAEAE"/>
<path fill-rule="evenodd" clip-rule="evenodd" d="M6.29873 11.8316C6.9332 11.8316 7.44761 12.4321 7.44761 13.0666C7.44761 13.7011 6.9332 14.2155 6.29873 14.2155C5.66426 14.2155 5.06369 13.7011 5.06369 13.0666C5.06369 12.4321 5.66426 11.8316 6.29873 11.8316Z" fill="#AEAEAE"/>
<path fill-rule="evenodd" clip-rule="evenodd" d="M10.8943 17.9589C11.5287 17.9589 12.0431 18.5595 12.0431 19.1939C12.0431 19.8284 11.5287 20.3428 10.8943 20.3428C10.2598 20.3428 9.65921 19.8284 9.65921 19.1939C9.65921 18.5595 10.2598 17.9589 10.8943 17.9589Z" fill="#AEAEAE"/>
<path opacity="0.5" fill-rule="evenodd" clip-rule="evenodd" d="M15.4897 16.4271C16.1242 16.4271 16.6386 17.0276 16.6386 17.6621C16.6386 18.2966 16.1242 18.811 15.4897 18.811C14.8553 18.811 14.2547 18.2966 14.2547 17.6621C14.2547 17.0276 14.8553 16.4271 15.4897 16.4271Z" fill="#AEAEAE"/>
<path fill-rule="evenodd" clip-rule="evenodd" d="M15.4897 12.5975C16.1242 12.5975 16.6386 13.1981 16.6386 13.8325C16.6386 14.467 16.1242 14.9814 15.4897 14.9814C14.8553 14.9814 14.2547 14.467 14.2547 13.8325C14.2547 13.1981 14.8553 12.5975 15.4897 12.5975Z" fill="#AEAEAE"/>
<path opacity="0.5" fill-rule="evenodd" clip-rule="evenodd" d="M19.3193 10.2997C19.9538 10.2997 20.4682 10.9003 20.4682 11.5348C20.4682 12.1692 19.9538 12.6836 19.3193 12.6836C18.6848 12.6836 18.0843 12.1692 18.0843 11.5348C18.0843 10.9003 18.6848 10.2997 19.3193 10.2997Z" fill="#AEAEAE"/>
</svg>
