<svg width="24" height="27" viewBox="0 0 24 27" fill="none" xmlns="http://www.w3.org/2000/svg">
<path fill-rule="evenodd" clip-rule="evenodd" d="M1.26039 22.7257H22.1724C22.499 22.7257 22.6871 22.9138 22.6871 23.1458C22.6871 23.3779 22.499 23.566 22.1724 23.566H1.26039C1.02837 23.566 0.745728 23.3779 0.745728 23.1458C0.745728 22.9138 1.02837 22.7257 1.26039 22.7257Z" fill="#AEAEAE"/>
<path fill-rule="evenodd" clip-rule="evenodd" d="M1.26039 12.6426H22.1724C22.499 12.6426 22.6871 12.8307 22.6871 13.0627C22.6871 13.2947 22.499 13.4828 22.1724 13.4828H1.26039C1.02837 13.4828 0.745728 13.2947 0.745728 13.0627C0.745728 12.8307 1.02837 12.6426 1.26039 12.6426Z" fill="#AEAEAE"/>
<path fill-rule="evenodd" clip-rule="evenodd" d="M1.26039 2.55941H22.1724C22.499 2.55941 22.6871 2.74753 22.6871 2.97955C22.6871 3.21156 22.499 3.39968 22.1724 3.39968H1.26039C1.02837 3.39968 0.745728 3.21156 0.745728 2.97955C0.745728 2.74753 1.02837 2.55941 1.26039 2.55941Z" fill="#AEAEAE"/>
<path d="M6.72211 2.98459L10.0832 13.0627L2.42627 23.1458" stroke="#FDFDFD" stroke-linecap="round" stroke-linejoin="round"/>
<path d="M2.42627 2.97955V13.0627L10.0832 23.1109" stroke="#DCDCDC" stroke-linecap="round" stroke-linejoin="round"/>
<path d="M20.912 2.90949L16.8052 13.0627L20.912 23.1458" stroke="#8D8C8C" stroke-linecap="round" stroke-linejoin="round"/>
<path d="M13.3497 2.94951V13.0627L15.1247 23.1458" stroke="#EBEBEB" stroke-linecap="round" stroke-linejoin="round"/>
<path fill-rule="evenodd" clip-rule="evenodd" d="M2.44607 2.03425C2.93067 2.03425 3.32344 2.42702 3.32344 2.91162C3.32344 3.39623 2.93067 3.789 2.44607 3.789C1.96146 3.789 1.48096 3.39623 1.48096 2.91162C1.48096 2.42702 1.96146 2.03425 2.44607 2.03425Z" fill="#FFFDFD"/>
<path fill-rule="evenodd" clip-rule="evenodd" d="M6.34551 2.03425C6.83011 2.03425 7.22289 2.42702 7.22289 2.91162C7.22289 3.39623 6.83011 3.789 6.34551 3.789C5.86091 3.789 5.3804 3.39623 5.3804 2.91162C5.3804 2.42702 5.86091 2.03425 6.34551 2.03425Z" fill="white"/>
<path fill-rule="evenodd" clip-rule="evenodd" d="M12.5846 2.03425C13.0692 2.03425 13.462 2.42702 13.462 2.91162C13.462 3.39623 13.0692 3.789 12.5846 3.789C12.1 3.789 11.6195 3.39623 11.6195 2.91162C11.6195 2.42702 12.1 2.03425 12.5846 2.03425Z" fill="white"/>
<path fill-rule="evenodd" clip-rule="evenodd" d="M19.6036 2.03425C20.0882 2.03425 20.481 2.42702 20.481 2.91162C20.481 3.39623 20.0882 3.789 19.6036 3.789C19.119 3.789 18.6385 3.39623 18.6385 2.91162C18.6385 2.42702 19.119 2.03425 19.6036 2.03425Z" fill="#FFFDFD"/>
<path fill-rule="evenodd" clip-rule="evenodd" d="M2.44607 20.7515C2.93067 20.7515 3.32344 21.1443 3.32344 21.6289C3.32344 22.1135 2.93067 22.5063 2.44607 22.5063C1.96146 22.5063 1.48096 22.1135 1.48096 21.6289C1.48096 21.1443 1.96146 20.7515 2.44607 20.7515Z" fill="white"/>
<path fill-rule="evenodd" clip-rule="evenodd" d="M9.46508 20.7515C9.94968 20.7515 10.3425 21.1443 10.3425 21.6289C10.3425 22.1135 9.94968 22.5063 9.46508 22.5063C8.98048 22.5063 8.49997 22.1135 8.49997 21.6289C8.49997 21.1443 8.98048 20.7515 9.46508 20.7515Z" fill="#FFFDFD"/>
<path fill-rule="evenodd" clip-rule="evenodd" d="M14.1444 20.7515C14.629 20.7515 15.0217 21.1443 15.0217 21.6289C15.0217 22.1135 14.629 22.5063 14.1444 22.5063C13.6598 22.5063 13.1793 22.1135 13.1793 21.6289C13.1793 21.1443 13.6598 20.7515 14.1444 20.7515Z" fill="white"/>
<path fill-rule="evenodd" clip-rule="evenodd" d="M19.6036 20.7515C20.0882 20.7515 20.481 21.1443 20.481 21.6289C20.481 22.1135 20.0882 22.5063 19.6036 22.5063C19.119 22.5063 18.6385 22.1135 18.6385 21.6289C18.6385 21.1443 19.119 20.7515 19.6036 20.7515Z" fill="#FFFDFD"/>
</svg>
