<svg width="24" height="25" viewBox="0 0 24 25" fill="none" xmlns="http://www.w3.org/2000/svg">
<path d="M4.52657 13.8827C4.3554 13.9068 4.13019 13.9724 4.0311 14.0241C3.84192 14.1206 3.84192 14.1344 3.81489 17.293L3.79688 20.462H5.23824H6.67961V17.3413C6.67961 13.9551 6.69762 14.0517 6.19315 13.9275C5.89586 13.8517 4.93195 13.8275 4.52657 13.8827Z" fill="#E0E0E0"/>
<path d="M8.25313 10.0331C8.08197 10.0714 7.85675 10.1752 7.75766 10.2572C7.56848 10.4102 7.56848 10.4321 7.54145 15.4389L7.52344 20.462H8.9648H10.4062V15.5154C10.4062 10.1479 10.4242 10.3009 9.91971 10.1042C9.62243 9.98391 8.65851 9.94565 8.25313 10.0331Z" fill="#8D8D8D"/>
<path d="M12.0094 2.5745C11.8313 2.64013 11.5969 2.81825 11.4938 2.95888C11.2969 3.22138 11.2969 3.25888 11.2688 11.8464L11.25 20.462H12.75H14.25V11.9776C14.25 2.77138 14.2688 3.03388 13.7438 2.69638C13.4344 2.49013 12.4313 2.4245 12.0094 2.5745Z" fill="#D9D2D2"/>
<path d="M15.8469 7.37338C15.6757 7.4214 15.4505 7.55174 15.3514 7.65464C15.1622 7.84671 15.1622 7.87415 15.1352 14.1578L15.1172 20.462H16.5586H17.9999V14.2538C17.9999 7.51744 18.0179 7.70951 17.5135 7.46256C17.2162 7.31164 16.2523 7.26362 15.8469 7.37338Z" fill="#B3B0B0"/>
<path d="M19.5734 12.2729C19.4023 12.3029 19.1771 12.3845 19.078 12.4488C18.8888 12.569 18.8888 12.5862 18.8618 16.5177L18.8438 20.462H20.2851H21.7265V16.5777C21.7265 12.363 21.7445 12.4832 21.24 12.3287C20.9427 12.2342 19.9788 12.2042 19.5734 12.2729Z" fill="#C8C3C3"/>
</svg>
