<svg width="24" height="24" viewBox="0 0 24 24" fill="none" xmlns="http://www.w3.org/2000/svg">
<path fill-rule="evenodd" clip-rule="evenodd" d="M4.9253 3.61487H18.8916C19.3174 3.61487 19.5759 3.96012 19.5759 4.29921V18.2655C19.5759 18.6913 19.3174 18.9498 18.8916 18.9498H4.9253C4.58622 18.9498 4.24097 18.6913 4.24097 18.2655V4.29921C4.24097 3.96012 4.58622 3.61487 4.9253 3.61487Z" fill="white"/>
<path d="M4.9253 3.61487H18.8916C19.3174 3.61487 19.5759 3.96012 19.5759 4.29921V18.2655C19.5759 18.6913 19.3174 18.9498 18.8916 18.9498H4.9253C4.58622 18.9498 4.24097 18.6913 4.24097 18.2655V4.29921C4.24097 3.96012 4.58622 3.61487 4.9253 3.61487Z" fill="url(#paint0_linear_31_1068)"/>
<path fill-rule="evenodd" clip-rule="evenodd" d="M4.24097 3.52811H19.5759V8.24136H4.24097V3.52811Z" fill="#4A4A4A"/>
<path d="M4.24097 3.52811H19.5759V8.24136H4.24097V3.52811Z" fill="url(#paint1_linear_31_1068)"/>
<path fill-rule="evenodd" clip-rule="evenodd" d="M4.9253 2.84378H18.8916C19.7433 2.84378 20.347 3.53419 20.347 4.2992V18.2655C20.347 19.1172 19.7433 19.7209 18.8916 19.7209H4.9253C4.16029 19.7209 3.46988 19.1172 3.46988 18.2655V4.2992C3.46988 3.53419 4.16029 2.84378 4.9253 2.84378Z" stroke="#B5B5B5"/>
<path fill-rule="evenodd" clip-rule="evenodd" d="M4.24097 7.38354H19.5759V8.24138H4.24097V7.38354Z" fill="#0E0E0E"/>
<path fill-rule="evenodd" clip-rule="evenodd" d="M4.24097 11.239H19.5759V12.0968H4.24097V11.239Z" fill="#D5D5D5"/>
<path fill-rule="evenodd" clip-rule="evenodd" d="M4.24097 15.0944H19.5759V15.9522H4.24097V15.0944Z" fill="#D5D5D5"/>
<path fill-rule="evenodd" clip-rule="evenodd" d="M8.78073 8.15463H9.63856V19.0366H8.78073V8.15463Z" fill="#C0C0C0"/>
<path fill-rule="evenodd" clip-rule="evenodd" d="M14.1783 8.15463H15.0361V19.0366H14.1783V8.15463Z" fill="#C0C0C0"/>
<path fill-rule="evenodd" clip-rule="evenodd" d="M8.78073 3.61487H9.63856V7.38354H8.78073V3.61487Z" fill="#0E0E0E"/>
<path fill-rule="evenodd" clip-rule="evenodd" d="M14.1783 3.61487H15.0361V7.38354H14.1783V3.61487Z" fill="#0E0E0E"/>
<defs>
<linearGradient id="paint0_linear_31_1068" x1="4.24097" y1="1537.11" x2="4.24097" y2="3.61487" gradientUnits="userSpaceOnUse">
<stop stop-opacity="0.075294"/>
<stop offset="1" stop-opacity="0"/>
</linearGradient>
<linearGradient id="paint1_linear_31_1068" x1="4.24097" y1="3.52811" x2="4.24097" y2="474.853" gradientUnits="userSpaceOnUse">
<stop stop-color="white" stop-opacity="0.150588"/>
<stop offset="1" stop-color="white" stop-opacity="0"/>
</linearGradient>
</defs>
</svg>
