<svg width="26" height="26" viewBox="0 0 26 26" fill="none" xmlns="http://www.w3.org/2000/svg">
<path fill-rule="evenodd" clip-rule="evenodd" d="M22.0309 22.6406H2.96912C2.75764 22.6406 2.5 22.4691 2.5 22.1714V3.10969C2.5 2.8982 2.75764 2.64056 2.96912 2.64056C3.18061 2.64056 3.26592 2.8982 3.26592 3.10969V21.8746H22.0309C22.3285 21.8746 22.5 22.0461 22.5 22.1714C22.5 22.4691 22.3285 22.6406 22.0309 22.6406Z" fill="#E7E3E3"/>
<path fill-rule="evenodd" clip-rule="evenodd" d="M7.94756 14.1293C9.63957 14.1293 11.0112 15.5871 11.0112 17.2791C11.0112 18.9712 9.63957 20.3428 7.94756 20.3428C6.25556 20.3428 4.79773 18.9712 4.79773 17.2791C4.79773 15.5871 6.25556 14.1293 7.94756 14.1293Z" fill="#E7E3E3"/>
<path fill-rule="evenodd" clip-rule="evenodd" d="M7.5646 9.53381C8.19907 9.53381 8.71348 10.1344 8.71348 10.7689C8.71348 11.4033 8.19907 11.9177 7.5646 11.9177C6.93013 11.9177 6.32956 11.4033 6.32956 10.7689C6.32956 10.1344 6.93013 9.53381 7.5646 9.53381Z" fill="#AEAEAE"/>
<path fill-rule="evenodd" clip-rule="evenodd" d="M14.0749 17.2791C14.921 17.2791 15.5206 17.9649 15.5206 18.811C15.5206 19.657 14.921 20.2566 14.0749 20.2566C13.2289 20.2566 12.5431 19.657 12.5431 18.811C12.5431 17.9649 13.2289 17.2791 14.0749 17.2791Z" fill="#AEAEAE"/>
<path fill-rule="evenodd" clip-rule="evenodd" d="M6.79867 3.49265C7.85621 3.49265 8.6273 4.3499 8.6273 5.40744C8.6273 6.46498 7.85621 7.23606 6.79867 7.23606C5.74113 7.23606 4.88388 6.46498 4.88388 5.40744C4.88388 4.3499 5.74113 3.49265 6.79867 3.49265Z" fill="#E7E3E3"/>
<path fill-rule="evenodd" clip-rule="evenodd" d="M19.4363 11.0656C17.3213 11.0656 15.5206 12.8664 15.5206 14.9814C15.5206 15.2431 15.6332 15.4985 15.6831 15.7454C15.6576 15.7458 15.6324 15.6611 15.5206 15.6611C13.0687 15.6611 11.0112 13.6899 11.0112 11.0656C11.0112 8.61376 13.0687 6.55631 15.5206 6.55631C18.1448 6.55631 20.1161 8.61376 20.1161 11.0656C20.1161 11.1775 20.2007 11.2027 20.2003 11.2282C19.9534 11.1782 19.698 11.0656 19.4363 11.0656Z" fill="#A6A0A0"/>
<path fill-rule="evenodd" clip-rule="evenodd" d="M19.4363 11.8316C21.1283 11.8316 22.5 13.2894 22.5 14.9814C22.5 16.6734 21.1283 18.0451 19.4363 18.0451C17.7443 18.0451 16.2865 16.6734 16.2865 14.9814C16.2865 13.2894 17.7443 11.8316 19.4363 11.8316Z" fill="#AEAEAE"/>
</svg>
