<svg width="26" height="24" viewBox="0 0 26 24" fill="none" xmlns="http://www.w3.org/2000/svg">
<g clip-path="url(#clip0_31_1121)">
<path fill-rule="evenodd" clip-rule="evenodd" d="M2.51038 2.13928C2.51038 1.03471 3.40581 0.139282 4.51038 0.139282H20.5C21.6046 0.139282 22.5 1.03471 22.5 2.13928V18.1289C22.5 19.2335 21.6046 20.1289 20.5 20.1289H4.51038C3.40581 20.1289 2.51038 19.2335 2.51038 18.1289V2.13928Z" fill="white"/>
<path fill-rule="evenodd" clip-rule="evenodd" d="M2.5 14.5068C2.5 13.8439 3.13328 13.3644 3.77132 13.5443L20.6128 18.2918C20.9935 18.3991 21.2565 18.7464 21.2565 19.142V19.142C21.2565 19.6298 20.861 20.0253 20.3732 20.0253H3.5C2.94772 20.0253 2.5 19.5776 2.5 19.0253V14.5068Z" fill="#D9D9D9"/>
<path d="M2.51038 13.1859L22.5 18.4813V20.0357H2.51038V13.1859Z" fill="url(#paint0_linear_31_1121)"/>
<path fill-rule="evenodd" clip-rule="evenodd" d="M11.7228 0.553791H22.0855V11.0098L9.77783 7.61732L11.7228 0.553791Z" fill="#DCD4D4"/>
<path d="M11.7228 0.553791H22.0855V11.0098L9.77783 7.61732L11.7228 0.553791Z" fill="#979797"/>
<path d="M12.3446 0.543427L7.785 14.7403" stroke="#4D4D4D"/>
<path d="M16.184 9.43742L14.4171 16.1911" stroke="#4D4D4D"/>
<path d="M21.3062 18.486L2.70312 13.0145" stroke="#4D4D4D"/>
<path d="M10.6361 4.51783L2.62848 2.37223" stroke="#4D4D4D"/>
<path d="M22.0855 11.6315L9.75388 7.69369" stroke="#4D4D4D"/>
<path fill-rule="evenodd" clip-rule="evenodd" d="M20.842 20.1289H4.16841C3.34592 20.1289 2.51038 19.3866 2.51038 18.4709V1.79731C2.51038 0.974826 3.34592 0.139282 4.16841 0.139282H20.842C21.7577 0.139282 22.5 0.974826 22.5 1.79731V18.4709C22.5 19.3866 21.7577 20.1289 20.842 20.1289ZM21.5777 1.79731C21.5777 1.43275 21.2998 1.06156 20.842 1.06156H4.16841C3.80385 1.06156 3.43266 1.43275 3.43266 1.79731V18.4709C3.43266 18.9287 3.80385 19.2066 4.16841 19.2066H20.842C21.2998 19.2066 21.5777 18.9287 21.5777 18.4709V1.79731Z" fill="#E1E1E1"/>
</g>
<defs>
<linearGradient id="paint0_linear_31_1121" x1="2.51038" y1="13.1859" x2="2.51038" y2="698.16" gradientUnits="userSpaceOnUse">
<stop stop-color="white" stop-opacity="0.25098"/>
<stop offset="1" stop-color="white" stop-opacity="0"/>
</linearGradient>
<clipPath id="clip0_31_1121">
<rect width="25" height="23.1061" fill="white" transform="translate(0.5 0.139282)"/>
</clipPath>
</defs>
</svg>
