<svg width="24" height="25" viewBox="0 0 24 25" fill="none" xmlns="http://www.w3.org/2000/svg">
<path d="M2.64375 13.2169C2.31563 13.3482 2.25 13.6857 2.25 15.1013C2.25 16.3669 2.25938 16.4232 2.48438 16.6388L2.70938 16.8732H9H15.2906L15.525 16.6388C15.7594 16.4044 15.7594 16.3951 15.7313 14.9513C15.7031 13.7138 15.675 13.4794 15.5344 13.3388C15.375 13.1794 14.9719 13.1701 9.1125 13.1513C5.475 13.1419 2.775 13.1701 2.64375 13.2169Z" fill="#D8D4D4"/>
<path d="M2.64375 2.55576C2.31563 2.68701 2.25 3.02451 2.25 4.44013C2.25 5.70576 2.25938 5.76201 2.48438 5.97763L2.70938 6.21201H9H15.2906L15.525 5.97763C15.7594 5.74326 15.7594 5.73388 15.7313 4.29013C15.7031 3.05263 15.675 2.81826 15.5344 2.67763C15.375 2.51826 14.9719 2.50888 9.1125 2.49013C5.475 2.48076 2.775 2.50888 2.64375 2.55576Z" fill="#B4B0B0"/>
<path d="M2.6625 7.82451C2.325 7.98388 2.25 8.31201 2.25 9.58701C2.25 10.8901 2.325 11.1901 2.69062 11.3589C2.85 11.4339 4.5375 11.462 8.23125 11.462H13.5469L13.6594 11.1995C13.8 10.8808 14.2312 10.6183 14.5969 10.6183C14.7469 10.6183 15.0281 10.7026 15.225 10.8058C15.4312 10.8995 15.6281 10.9651 15.6656 10.937C15.7875 10.862 15.7687 8.41513 15.6469 8.15263C15.5906 8.02138 15.4406 7.87138 15.3094 7.81513C15.0094 7.67451 2.95312 7.68388 2.6625 7.82451Z" fill="#848181"/>
<path d="M14.4094 11.6308C14.2687 11.7901 14.25 12.212 14.25 15.8026V19.8058L14.475 19.9464C14.8031 20.162 14.9437 20.0589 15.9 18.9526C16.35 18.437 16.7531 18.0526 16.7906 18.0901C16.8281 18.1276 17.3906 19.0933 18.0281 20.2276C19.05 22.037 19.2187 22.2901 19.4344 22.3183C19.7625 22.3558 20.9906 21.7089 21.1219 21.4276C21.1969 21.2589 21.0375 20.912 20.0156 19.1214C19.3594 17.9589 18.825 16.9745 18.825 16.9276C18.8344 16.8901 19.4344 16.7683 20.1562 16.6558C21.0187 16.5339 21.525 16.412 21.6281 16.3183C21.975 15.962 21.7875 15.812 18.2437 13.5901C16.3687 12.4183 14.775 11.462 14.7 11.462C14.625 11.462 14.4937 11.537 14.4094 11.6308Z" fill="#D0D0D0"/>
</svg>
