<svg width="24" height="22" viewBox="0 0 24 22" fill="none" xmlns="http://www.w3.org/2000/svg">
<path fill-rule="evenodd" clip-rule="evenodd" d="M19.8067 5.62082H4.1041V2.7658C4.1041 1.97737 4.74317 1.258 5.45131 1.258H11.2416C12.0301 1.258 12.5889 1.97737 12.5889 2.7658H18.2989C19.1676 2.7658 19.8067 3.40488 19.8067 4.19331V5.62082Z" fill="#AEAEAE"/>
<path d="M19.8067 5.62082H4.1041V2.7658C4.1041 1.97737 4.74317 1.258 5.45131 1.258H11.2416C12.0301 1.258 12.5889 1.97737 12.5889 2.7658H18.2989C19.1676 2.7658 19.8067 3.40488 19.8067 4.19331V5.62082Z" fill="url(#paint0_linear_31_1052)"/>
<path fill-rule="evenodd" clip-rule="evenodd" d="M7.70017 3.48428L16.241 4.47792L15.4969 10.6124L6.95609 9.61865L7.70017 3.48428Z" fill="white"/>
<path fill-rule="evenodd" clip-rule="evenodd" d="M4.56894 5.54053H19.3419C20.5447 5.54053 21.376 6.61598 21.2037 7.80804L20.1036 16.0931C19.9694 17.0213 19.0367 17.7547 18.0168 17.7547H5.89402C4.87416 17.7547 3.94137 17.0213 3.80718 16.0931L2.70711 7.80804C2.53483 6.61598 3.36608 5.54053 4.56894 5.54053Z" fill="#BCBCBC"/>
<path d="M4.56894 5.54053H19.3419C20.5447 5.54053 21.376 6.61598 21.2037 7.80804L20.1036 16.0931C19.9694 17.0213 19.0367 17.7547 18.0168 17.7547H5.89402C4.87416 17.7547 3.94137 17.0213 3.80718 16.0931L2.70711 7.80804C2.53483 6.61598 3.36608 5.54053 4.56894 5.54053Z" fill="url(#paint1_linear_31_1052)"/>
<defs>
<linearGradient id="paint0_linear_31_1052" x1="4.1041" y1="437.541" x2="4.1041" y2="1.258" gradientUnits="userSpaceOnUse">
<stop stop-opacity="0.37647"/>
<stop offset="1" stop-opacity="0"/>
</linearGradient>
<linearGradient id="paint1_linear_31_1052" x1="2.68451" y1="5.54053" x2="2.68451" y2="1226.95" gradientUnits="userSpaceOnUse">
<stop stop-color="white" stop-opacity="0.150588"/>
<stop offset="1" stop-color="white" stop-opacity="0"/>
</linearGradient>
</defs>
</svg>
