<svg width="24" height="24" viewBox="0 0 24 24" fill="none" xmlns="http://www.w3.org/2000/svg">
<path opacity="0.502" d="M4.68724 6.2892H6.25398V19.3959H4.68724C4.61915 19.3959 4.55361 19.4174 4.50398 19.4388C4.45069 19.4618 4.39722 19.4929 4.34918 19.528C4.30174 19.5627 4.25335 19.6059 4.21475 19.6557C4.1794 19.7013 4.13389 19.7761 4.13389 19.8697C4.13389 20.0746 4.22687 20.2215 4.34918 20.3109C4.46205 20.3934 4.59326 20.4231 4.68724 20.4231H9.00691C9.12609 20.4231 9.27011 20.3999 9.38581 20.3022C9.50812 20.1989 9.56026 20.0459 9.56026 19.8697C9.56026 19.7298 9.47335 19.6106 9.38581 19.5367C9.29122 19.4568 9.15839 19.3959 9.00691 19.3959H7.44017V6.2892H9.00691C9.1267 6.2892 9.26049 6.26577 9.37025 6.19013C9.49064 6.10716 9.56026 5.97588 9.56026 5.81535C9.56026 5.50976 9.3125 5.26201 9.00691 5.26201H4.68724C4.61831 5.26201 4.55183 5.28388 4.49908 5.30835C4.44323 5.33426 4.38701 5.3704 4.33632 5.41428C4.24025 5.49742 4.13389 5.63614 4.13389 5.81535C4.13389 6.00843 4.25556 6.13208 4.36475 6.19722C4.47072 6.26043 4.59466 6.2892 4.68724 6.2892Z" fill="#D9D2D2" stroke="#F5F5F5" stroke-width="0.4"/>
<path fill-rule="evenodd" clip-rule="evenodd" d="M3 13.1561H10.6941V16.7691C10.6941 17.1594 10.4572 17.4758 9.98744 17.4758H3.70669C3.31642 17.4758 3 17.1594 3 16.7691V13.1561Z" fill="#B7B7B7"/>
<path fill-rule="evenodd" clip-rule="evenodd" d="M3.70669 8.91597H9.98744C10.4572 8.91597 10.6941 9.3119 10.6941 9.62266V13.2356H3V9.62266C3 9.3119 3.31642 8.91597 3.70669 8.91597Z" fill="#F1F1F1"/>
<path opacity="0.502" d="M15.1872 2.4392H16.854V15.0392H15.1872C15.1387 15.0392 15.0877 15.0549 15.0436 15.0739C14.9977 15.0937 14.9507 15.121 14.9082 15.152C14.866 15.1829 14.8251 15.2198 14.7938 15.2602C14.7641 15.2986 14.7339 15.3518 14.7339 15.413C14.7339 15.5841 14.8101 15.7017 14.9082 15.7734C15.0016 15.8417 15.1113 15.8664 15.1872 15.8664H19.5069C19.6153 15.8664 19.7315 15.845 19.8213 15.7691C19.9144 15.6904 19.9603 15.5698 19.9603 15.413C19.9603 15.3142 19.897 15.2203 19.8213 15.1564C19.742 15.0894 19.6314 15.0392 19.5069 15.0392H17.8402V2.4392H19.5069C19.6156 2.4392 19.7267 2.41765 19.8135 2.35779C19.9057 2.29427 19.9603 2.1944 19.9603 2.06535C19.9603 1.81499 19.7573 1.61201 19.5069 1.61201H15.1872C15.1383 1.61201 15.0868 1.62789 15.0412 1.64906C14.994 1.67096 14.9456 1.70197 14.9018 1.73989C14.8168 1.81344 14.7339 1.92696 14.7339 2.06535C14.7339 2.21067 14.8244 2.30673 14.916 2.36133C15.0059 2.41497 15.112 2.4392 15.1872 2.4392Z" fill="#FBFBFB" stroke="#F5F5F5" stroke-width="0.2"/>
<path fill-rule="evenodd" clip-rule="evenodd" d="M13.5 6.57935H21.1941V12.3124C21.1941 12.7027 20.9572 13.0191 20.4874 13.0191H14.2067C13.8164 13.0191 13.5 12.7027 13.5 12.3124V6.57935Z" fill="#B3B0B0"/>
<path fill-rule="evenodd" clip-rule="evenodd" d="M14.2067 4.45927H20.4874C20.9572 4.45927 21.1941 4.8552 21.1941 5.24547V6.65886H13.5V5.24547C13.5 4.8552 13.8164 4.45927 14.2067 4.45927Z" fill="#D8D4D4"/>
</svg>
